
SVGOMG
Powered by SVGO v3.0.0


Open SVG
Paste markup

Demo
Contribute



183.74k → 1.67k 0.91%
<svg xmlns="http://www.w3.org/2000/svg" xml:space="preserve" id="Layer_1" x="0" y="0" style="enable-background:new 0 0 983.6 246.7" version="1.1" viewBox="0 0 983.6 246.7"><style>.st1{fill:#fff}</style><switch><g><path d="M369.9 172.3v73.2c0 .7-.5 1.2-1.2 1.2h-5.2c-.7 0-1.2-.5-1.2-1.2v-73.2c0-.7.5-1.2 1.2-1.2h5.2c.7-.1 1.2.5 1.2 1.2zm32.3-47.6c-13.4 14-30.1 21-50.1 21h-55.9c-1.1 0-2-.9-2-2V2c0-1.1.9-2 2-2h55.9c20 0 36.7 7 50.1 21 13.4 14 20.1 31.3 20.1 51.9 0 20.5-6.7 37.8-20.1 51.8zm-7.4-51.9c0-13.5-4-24.4-11.9-32.8-7.9-8.4-18.2-12.6-30.8-12.6H323v90.8h29.2c12.6 0 22.9-4.2 30.8-12.6 7.9-8.4 11.8-19.3 11.8-32.8zM140.6 0H114c-.7 0-1.3.4-1.7 1l-41 67.9L30.1.9c-.4-.6-1-1-1.7-1H1.9c-1.1 0-2 .9-2 2v141.8c0 1.1.9 2 2 2h24.7c1.1 0 2-.9 2-2V51.5L69 117.9c.4.6 1.1 1 1.8 1h1.1c.7 0 1.3-.4 1.6-1L114 51.2v92.5c0 1.1.9 2 2 2h24.5c1.1 0 2-.9 2-2V2c.1-1.2-.8-2-1.9-2zM471 210.6h-34.1c-.7 0-1.2.5-1.2 1.2v4.5c0 .7.5 1.2 1.2 1.2h26.5c.8 0 1.3.7 1.2 1.4-.9 5.8-3.7 10.6-8.3 14.4-4.9 4.1-11.5 6.2-19.7 6.2-9.1 0-16.6-3-22.3-8.9-5.8-5.9-8.7-13.2-8.7-21.8 0-8.6 2.9-15.9 8.7-21.8 5.8-5.9 13.2-8.9 22.3-8.9 5.4 0 10.4 1.3 14.9 4 4.2 2.4 7.4 5.6 9.6 9.6.3.6 1.1.8 1.7.5l4.4-2.5c.6-.3.8-1.1.4-1.7-3-4.9-7.2-8.9-12.4-12-5.6-3.3-11.8-4.9-18.6-4.9-11.1 0-20.2 3.7-27.5 11-7.2 7.3-10.9 16.3-10.9 26.8 0 10.6 3.6 19.5 10.9 26.8 7.2 7.3 16.4 11 27.5 11 10.9 0 19.5-3.1 26-9.3 6.5-6.2 9.7-13.9 9.7-22.9v-2.6c-.1-.7-.6-1.3-1.3-1.3zM327.4 182c6.7 7.3 10.1 16.3 10.1 26.8s-3.4 19.5-10.1 26.8c-6.7 7.3-15.2 11-25.5 11h-28c-.7 0-1.2-.5-1.2-1.2v-73.2c0-.7.5-1.2 1.2-1.2h28c10.2 0 18.7 3.7 25.5 11zm2.7 26.8c0-8.6-2.6-15.9-7.9-21.8-5.3-5.9-12.1-8.9-20.4-8.9h-20.4c-.7 0-1.2.5-1.2 1.2v58.9c0 .7.5 1.2 1.2 1.2h20.4c8.3 0 15.1-3 20.4-8.9 5.3-5.7 7.9-13 7.9-21.7zm-67-90.6h-59.4V85.5h53.2c1.1 0 2-.9 2-2v-23c0-1.1-.9-2-2-2h-53.2v-31h58.4c1.1 0 2-.9 2-2V2c0-1.1-.9-2-2-2H177c-1.1 0-2 .9-2 2v141.8c0 1.1.9 2 2 2h86.2c1.1 0 2-.9 2-2v-23.5c-.1-1.2-1-2.1-2.1-2.1zM734 240.1c-.2-.4-.6-.6-1-.6h-28c-.7 0-1.2-.5-1.2-1.2v-66.1c0-.7-.5-1.2-1.2-1.2h-5.2c-.7 0-1.2.5-1.2 1.2v73.2c0 .7.5 1.2 1.2 1.2h38.2c.9 0 1.5-1 1-1.8l-2.6-4.7zm-64.2 4.9c.3.8-.3 1.6-1.1 1.6h-5.4c-.5 0-.9-.3-1.1-.8l-6.4-17c-.2-.5-.6-.8-1.1-.8h-34.2c-.5 0-.9.3-1.1.8l-6.4 17c-.2.5-.6.8-1.1.8h-5.4c-.8 0-1.4-.8-1.1-1.6l28.1-73.2c.2-.5.6-.8 1.1-.8h6.1c.5 0 .9.3 1.1.8l28 73.2zm-17-24.1-15.2-40.4-15.3 40.4h30.5zm84.2-75.1h-67.6c-5.1 0-9.9-2.7-12.4-7.2L623.2 80c-2.6-4.4-2.6-9.9 0-14.4L657 7.1c2.6-4.4 7.3-7.2 12.4-7.2H737c5.1 0 9.9 2.8 12.4 7.2l33.8 58.6c2.6 4.4 2.6 9.9 0 14.4l-21.3 37-12.5 21.6c-2.5 4.4-7.3 7.1-12.4 7.1zm19.9-72.3c.2-.4.2-.8 0-1.2l-26.3-45.6c-.2-.4-.6-.6-1-.6H677c-.4 0-.8.2-1 .6l-26.3 45.6c-.2.4-.2.8 0 1.2l26.3 45.6c.2.4.6.6 1 .6h52.6c.4 0 .8-.2 1-.6l26.3-45.6zm224.4 52-57.6-99.8c-2.5-4.4-7.3-7.1-12.4-7.1H797.9c-1.1 0-1.6.8-1 1.8L810.5 44c.2.4.6.6 1 .6h92.3c.4 0 .8.2 1 .6L955 132c.2.4.2.8 0 1.2L904.9 220c-.2.4-.6.6-1 .6H803.6c-.4 0-.8-.2-1-.6l-33.9-58.7c-.5-.8-1.6-.8-2.1 0-4.3 7.3-12.1 11.9-20.6 11.9h-.5l38.3 66.3c2.5 4.4 7.3 7.1 12.4 7.1h115.2c5.1 0 9.8-2.7 12.4-7.1l57.6-99.8c2.4-4.4 2.4-9.8-.1-14.2zm-477.5 45.4h-5.2c-.7 0-1.2.5-1.2 1.2v73.2c0 .7.5 1.2 1.2 1.2h5.2c.7 0 1.2-.5 1.2-1.2v-73.2c0-.7-.5-1.2-1.2-1.2zM470.2 0h-24.8c-1.1 0-2 .9-2 2v141.7c0 1.1.9 2 2 2h24.8c1.1 0 2-.9 2-2V2c0-1.1-.9-2-2-2zm135.4 137.3c4.6-2.5 8.7-5.5 12.4-8.8.7-.6.9-1.7.4-2.5l-12.1-20.9c-.7-1.2-2.4-1.4-3.3-.3-2.9 3.6-6.6 6.6-11 9-6.5 3.6-13.8 5.3-21.8 5.3-13.7 0-24.7-4.3-33-12.9-8.4-8.6-12.6-19.6-12.6-33.2 0-13.7 4.2-24.8 12.6-33.4 8.4-8.6 19.4-12.9 33-12.9 8 0 15.3 1.8 21.7 5.3 4.4 2.4 8.1 5.5 11.1 9.2.9 1.1 2.6.9 3.3-.3L618.4 20c.5-.8.3-1.9-.4-2.5-3.7-3.3-7.9-6.2-12.5-8.8C594.7 2.9 583 0 570.3 0c-21.2 0-38.6 7-52.4 21-13.8 14-20.7 31.4-20.7 52.1 0 20.6 6.9 38 20.7 52 13.8 14.1 31.3 21.1 52.4 21.1 12.8 0 24.6-2.9 35.3-8.9zM586.5 171h-51.6c-.7 0-1.2.5-1.2 1.2v4.7c0 .7.5 1.2 1.2 1.2h20.8c.7 0 1.2.5 1.2 1.2v66.1c0 .7.5 1.2 1.2 1.2h5.2c.7 0 1.2-.5 1.2-1.2v-66.1c0-.7.5-1.2 1.2-1.2h20.8c.7 0 1.2-.5 1.2-1.2v-4.7c0-.6-.5-1.2-1.2-1.2z" style="fill:#22314e"/></g></switch></svg>